<?xml version="1.0" encoding="utf-8"?>
<!-- Generator: Adobe Illustrator 24.3.0, SVG Export Plug-In . SVG Version: 6.00 Build 0)  -->
<svg version="1.1" id="_x31_" xmlns="http://www.w3.org/2000/svg" xmlns:xlink="http://www.w3.org/1999/xlink" x="0px" y="0px"
	 width="1200px" height="470px" viewBox="0 0 1200 470" enable-background="new 0 0 1200 470" xml:space="preserve">
<g>
	<g>
		<path fill="#2E3870" d="M205.537,375.739h38.93c-9.215-11.16-14.928-25.138-14.928-39.465v-86.549
			c0-13.818,1.693-31.477,14.898-45.494l5.267-5.59c11.582-12.295,28.281-18.793,48.293-18.793h120.027
			c7.738,0,15.055-8.318,15.055-17.115v-15.063c0-2.455-0.919-4.778-2.594-6.565L316.321,30.978
			c-9.498-9.419-28.174-22.935-46.544-7.622l-1.389,1.157l-0.373,0.151c-1.383,1.157-7.119,6.766-7.119,20.192v140.492h-30.899
			V44.856c0-16.161,4.862-27.433,10.03-34.856h-30.053c5.169,7.423,10.03,18.695,10.03,34.856v140.492h-30.899V44.856
			c0-13.606-5.892-19.184-7.173-20.236l-1.373-0.683l-0.335-0.58c-18.37-15.313-37.046-1.796-46.544,7.622l-0.152,0.149
			L19.521,141.104c-1.675,1.786-2.595,4.11-2.595,6.565v15.063c0,8.797,7.316,17.115,15.055,17.115h120.027
			c20.011,0,36.711,6.499,48.293,18.793l5.267,5.59c13.205,14.018,14.898,31.676,14.898,45.494v86.549
			C220.466,350.601,214.753,364.579,205.537,375.739z"/>
		<path fill="#2E3870" d="M436.956,209.057v-2.765c-5.811,2.837-12.227,4.454-18.934,4.454H297.996
			c-11.444,0-20.125,3.055-25.802,9.081l-5.267,5.591c-4.549,4.829-6.49,12.098-6.49,24.307v86.549
			c0,14.984,13.699,30.324,28.742,32.182c4.022,0.498,7.197,0.06,9.709-1.336c2.11-1.21,15.962-11.184,80.83-88.479
			C402.88,251.044,424.902,223.972,436.956,209.057z"/>
		<path fill="#2E3870" d="M151.124,367.126c2.504,1.391,5.679,1.828,9.7,1.331c15.044-1.859,28.743-17.199,28.743-32.182v-86.549
			c0-12.208-1.941-19.477-6.49-24.307l-5.267-5.59c-5.677-6.026-14.358-9.082-25.802-9.082H31.982
			c-6.706,0-13.123-1.617-18.934-4.454v2.765c12.053,14.914,34.075,41.985,57.238,69.585
			C135.154,355.937,149.006,365.911,151.124,367.126z"/>
		<polygon fill="#2E3870" points="436.956,104.416 436.956,10 339.078,10 		"/>
		<path fill="#2E3870" d="M403.164,298.771c-34.373,40.95-55.088,63.872-67.921,76.968h101.713V258.002
			C426.784,270.411,415.12,284.527,403.164,298.771z"/>
		<polygon fill="#2E3870" points="110.926,10 13.048,10 13.048,104.416 		"/>
		<path fill="#2E3870" d="M46.84,298.771c-11.956-14.244-23.619-28.359-33.792-40.769v117.737h101.713
			C101.928,362.643,81.213,339.72,46.84,298.771z"/>
	</g>
	<g>
		<path fill="#2E3870" d="M13.106,448.889v-11.41h20.058c1.176,0,1.764-0.597,1.764-1.792V432.7c0-1.195-0.588-1.792-1.764-1.792
			H21.282c-5.49,0-8.234-2.648-8.234-7.945V412.15c0-5.774,2.647-8.662,7.94-8.662h23.058v11.41H24.988
			c-1.177,0-1.765,0.597-1.765,1.792v2.927c0,1.195,0.588,1.792,1.765,1.792h12.235c5.215,0,7.823,2.668,7.823,8.004v10.634
			c0,5.894-2.843,8.841-8.529,8.841H13.106z"/>
		<path fill="#2E3870" d="M49.75,448.889v-19.893c0-5.336,2.608-8.004,7.823-8.004h11.94c1.568,0,2.353-0.797,2.353-2.39v-1.314
			c0-1.593-0.785-2.39-2.353-2.39H50.515v-11.41h23.528c5.333,0,8,2.888,8,8.662v11.231c0,5.297-2.745,7.945-8.235,7.945H62.103
			c-1.529,0-2.294,0.797-2.294,2.389v3.764h22.234v11.41H49.75z"/>
		<path fill="#2E3870" d="M104.746,448.889v-45.401h27.94v11.231h-17.705v6.451h15.293v9.618h-15.293v6.691h17.822v11.41H104.746z"
			/>
		<path fill="#2E3870" d="M157.742,448.889v-22.88c0-1.195-0.588-1.792-1.764-1.792h-7.176c-1.177,0-1.764,0.597-1.764,1.792v22.88
			h-10.176v-26.822c0-5.496,2.685-8.244,8.058-8.244h14.882c5.332,0,7.999,2.768,7.999,8.303v26.763H157.742z"/>
		<path fill="#2E3870" d="M174.094,460v-8.901h17.94c1.177,0,1.765-0.597,1.765-1.792v-3.943h-13.058
			c-5.373,0-8.059-2.748-8.059-8.244v-15.294c0-5.336,2.744-8.004,8.235-8.004h23.057v37.873c0,5.535-2.686,8.304-8.058,8.304
			H174.094z M193.799,423.918h-9.176c-1.177,0-1.765,0.638-1.765,1.912v8.363c0,1.194,0.588,1.791,1.765,1.791h9.176V423.918z"/>
		<path fill="#2E3870" d="M211.268,410.955c-1.412,0-2.118-0.777-2.118-2.329v-4.002c0-1.554,0.784-2.331,2.353-2.331h5.529
			c1.49,0,2.235,0.776,2.235,2.331v4.002c0,1.553-0.745,2.329-2.235,2.329H211.268z M209.15,448.889v-35.066h10.176v35.066H209.15z"
			/>
		<path fill="#2E3870" d="M245.265,448.889v-22.88c0-1.195-0.588-1.792-1.764-1.792h-7.176c-1.177,0-1.764,0.597-1.764,1.792v22.88
			h-10.176v-26.822c0-5.496,2.685-8.244,8.058-8.244h14.882c5.332,0,7.999,2.768,7.999,8.303v26.763H245.265z"/>
		<path fill="#2E3870" d="M268.44,448.889c-5.491,0-8.235-2.748-8.235-8.244v-18.579c0-5.496,2.647-8.244,7.941-8.244h15.764
			c5.019,0,7.529,2.668,7.529,8.004v5.138c0,5.416-2.51,8.124-7.529,8.124h-11.705c-0.706,0-1.314-0.139-1.823-0.417v2.628
			c0,1.195,0.588,1.792,1.765,1.792h17.822v9.797H268.44z M281.321,424.635c0-0.797-0.393-1.195-1.177-1.195h-8.587
			c-0.785,0-1.177,0.398-1.177,1.195v2.449c0,0.797,0.392,1.195,1.177,1.195h8.587c0.784,0,1.177-0.398,1.177-1.195V424.635z"/>
		<path fill="#2E3870" d="M304.143,448.889c-5.491,0-8.235-2.748-8.235-8.244v-18.579c0-5.496,2.647-8.244,7.941-8.244h15.764
			c5.019,0,7.529,2.668,7.529,8.004v5.138c0,5.416-2.51,8.124-7.529,8.124h-11.705c-0.706,0-1.314-0.139-1.823-0.417v2.628
			c0,1.195,0.588,1.792,1.765,1.792h17.822v9.797H304.143z M317.025,424.635c0-0.797-0.393-1.195-1.177-1.195h-8.587
			c-0.785,0-1.177,0.398-1.177,1.195v2.449c0,0.797,0.392,1.195,1.177,1.195h8.587c0.784,0,1.177-0.398,1.177-1.195V424.635z"/>
		<path fill="#2E3870" d="M331.847,448.889v-26.822c0-2.748,0.647-4.809,1.941-6.183c1.294-1.374,3.353-2.061,6.176-2.061h11.411
			v10.335h-7.529c-1.176,0-1.764,0.597-1.764,1.791v22.94H331.847z"/>
		<path fill="#2E3870" d="M356.728,410.955c-1.412,0-2.118-0.777-2.118-2.329v-4.002c0-1.554,0.784-2.331,2.353-2.331h5.529
			c1.49,0,2.235,0.776,2.235,2.331v4.002c0,1.553-0.745,2.329-2.235,2.329H356.728z M354.61,448.889v-35.066h10.176v35.066H354.61z"
			/>
		<path fill="#2E3870" d="M390.725,448.889v-22.88c0-1.195-0.588-1.792-1.764-1.792h-7.176c-1.177,0-1.764,0.597-1.764,1.792v22.88
			h-10.176v-26.822c0-5.496,2.685-8.244,8.058-8.244h14.882c5.332,0,7.999,2.768,7.999,8.303v26.763H390.725z"/>
		<path fill="#2E3870" d="M407.076,460v-8.901h17.94c1.177,0,1.765-0.597,1.765-1.792v-3.943h-13.058
			c-5.373,0-8.059-2.748-8.059-8.244v-15.294c0-5.336,2.744-8.004,8.235-8.004h23.057v37.873c0,5.535-2.686,8.304-8.058,8.304
			H407.076z M426.781,423.918h-9.176c-1.177,0-1.765,0.638-1.765,1.912v8.363c0,1.194,0.588,1.791,1.765,1.791h9.176V423.918z"/>
	</g>
	<g>
		<path fill="#555555" d="M554.586,170.129c-2.238,0-4.215-0.303-5.93-0.91c-1.715-0.607-3.133-1.449-4.251-2.527
			c-1.119-1.078-2.029-2.414-2.73-4.01c-0.701-1.595-1.192-3.307-1.475-5.138c-0.283-1.831-0.423-3.892-0.423-6.183v-19.476
			c0-2.426,0.146-4.577,0.439-6.453c0.293-1.875,0.785-3.616,1.475-5.222c0.691-1.606,1.595-2.926,2.714-3.959
			c1.119-1.033,2.53-1.842,4.236-2.426c1.704-0.584,3.686-0.876,5.945-0.876c2.594,0,4.811,0.371,6.652,1.112
			c1.84,0.741,3.295,1.831,4.361,3.268c1.067,1.438,1.84,3.117,2.321,5.038c0.481,1.92,0.722,4.161,0.722,6.722v4.785h-9.13v-4.751
			c0-2.785-0.136-4.661-0.408-5.627c-0.544-1.887-1.872-2.898-3.985-3.033c-0.168,0-0.335,0-0.502,0
			c-0.795,0-1.49,0.101-2.086,0.303c-0.596,0.202-1.083,0.523-1.459,0.96c-0.377,0.439-0.68,0.905-0.91,1.399
			c-0.231,0.494-0.403,1.141-0.518,1.938c-0.115,0.798-0.188,1.533-0.22,2.207c-0.031,0.674-0.047,1.528-0.047,2.561v23.654
			c0,3.28,0.381,5.616,1.145,7.009c0.763,1.393,2.128,2.089,4.094,2.089c0.669,0,1.26-0.084,1.773-0.252
			c0.512-0.169,0.941-0.382,1.286-0.641c0.345-0.257,0.638-0.628,0.879-1.111c0.24-0.483,0.423-0.932,0.549-1.348
			c0.125-0.415,0.219-0.994,0.282-1.736c0.063-0.741,0.099-1.37,0.11-1.887c0.01-0.516,0.016-1.224,0.016-2.123v-4.987h9.13v4.583
			c0,2.089-0.136,3.965-0.408,5.627c-0.272,1.663-0.737,3.224-1.396,4.684c-0.659,1.46-1.511,2.673-2.557,3.639
			c-1.047,0.966-2.385,1.724-4.016,2.274C558.634,169.853,556.74,170.129,554.586,170.129z"/>
		<path fill="#555555" d="M585.836,170.095c-3.995,0-6.971-1.207-8.926-3.622c-1.956-2.414-2.934-5.868-2.934-10.361v-13.175
			c0-4.493,0.978-7.946,2.934-10.362c1.955-2.414,4.931-3.622,8.926-3.622c4.016,0,7.013,1.208,8.989,3.622
			c1.977,2.415,2.965,5.869,2.965,10.362v13.175c0,4.493-0.988,7.947-2.965,10.361C592.849,168.888,589.852,170.095,585.836,170.095
			z M585.867,163.457c0.711,0,1.292-0.168,1.742-0.505c0.45-0.337,0.773-0.859,0.973-1.567c0.199-0.708,0.329-1.393,0.392-2.056
			c0.063-0.662,0.094-1.521,0.094-2.577v-14.455c0-0.831-0.016-1.521-0.047-2.072c-0.031-0.55-0.105-1.151-0.219-1.803
			c-0.115-0.651-0.288-1.162-0.518-1.533c-0.23-0.37-0.544-0.684-0.941-0.943c-0.398-0.257-0.89-0.387-1.475-0.387
			c-0.711,0-1.292,0.175-1.741,0.522c-0.45,0.349-0.774,0.876-0.973,1.584c-0.199,0.707-0.329,1.393-0.392,2.055
			c-0.063,0.663-0.094,1.522-0.094,2.578v14.455c0,0.831,0.016,1.522,0.047,2.073c0.031,0.551,0.104,1.146,0.219,1.785
			c0.115,0.641,0.288,1.146,0.518,1.517c0.23,0.37,0.544,0.685,0.941,0.943C584.79,163.328,585.282,163.457,585.867,163.457z"/>
		<path fill="#555555" d="M603.814,169.455V129.56h8.785v3.909c2.991-3.01,6.013-4.515,9.068-4.515c2.112,0,3.655,0.831,4.628,2.493
			c0.973,1.663,1.458,3.706,1.458,6.133v31.876h-8.785v-29.787c0-1.258-0.168-2.19-0.502-2.797
			c-0.335-0.607-0.984-0.898-1.945-0.876c-1.088,0.023-2.395,0.629-3.922,1.82v31.64H603.814z"/>
		<path fill="#555555" d="M643.88,170.095c-3.075,0-5.595-0.921-7.562-2.763c-1.965-1.842-3.315-4.493-4.046-7.952l6.652-2.595
			c0.46,2.202,1.108,3.87,1.944,5.004c0.837,1.135,1.883,1.679,3.138,1.634c0.92-0.022,1.679-0.376,2.274-1.062
			c0.596-0.684,0.873-1.521,0.832-2.51c-0.083-1.437-1.308-3.246-3.671-5.425l-4.988-4.583c-3.598-3.324-5.355-6.795-5.272-10.412
			c0.063-3.189,1.072-5.733,3.028-7.632c1.956-1.898,4.45-2.848,7.483-2.848c2.907,0,5.271,0.943,7.091,2.83
			c1.82,1.887,3,4.414,3.544,7.581l-5.772,2.595c-0.796-4.133-2.28-6.211-4.456-6.234c-0.92-0.022-1.658,0.281-2.212,0.91
			c-0.554,0.629-0.831,1.382-0.831,2.258c-0.021,1.213,1.014,2.797,3.106,4.751l5.082,4.953c0.858,0.809,1.569,1.533,2.133,2.173
			c0.565,0.641,1.156,1.421,1.773,2.342c0.617,0.921,1.077,1.91,1.38,2.965c0.303,1.056,0.456,2.19,0.456,3.403
			c0,3.37-1.041,5.981-3.122,7.834C649.783,169.168,647.122,170.095,643.88,170.095z"/>
		<path fill="#555555" d="M670.079,169.994c-1.695-0.023-3.133-0.326-4.315-0.91c-1.182-0.584-2.091-1.42-2.729-2.51
			c-0.639-1.089-1.098-2.308-1.381-3.656s-0.423-2.92-0.423-4.717v-22.407h-3.671v-6.234h3.671v-11.726h8.816v11.726h5.648v6.234
			h-5.648v23.014c0,1.303,0.267,2.241,0.801,2.813c0.533,0.573,1.385,0.871,2.557,0.893c0.816,0.023,1.705-0.045,2.667-0.202v7.211
			C673.581,169.881,671.585,170.039,670.079,169.994z"/>
		<path fill="#555555" d="M681.184,169.455V129.56h8.786v6.133c1.233-2.359,2.483-4.055,3.749-5.088
			c1.265-1.033,2.62-1.55,4.064-1.55c0.439,0,0.878,0.056,1.318,0.168v9.334c-0.984-0.404-1.998-0.607-3.044-0.607
			c-1.255,0.045-2.359,0.382-3.31,1.011c-0.951,0.629-1.878,1.674-2.776,3.134v27.361H681.184z"/>
		<path fill="#555555" d="M709.173,170.061c-2.113,0-3.655-0.831-4.628-2.493c-0.973-1.662-1.459-3.706-1.459-6.133V129.56h8.754
			v29.955c0,1.236,0.178,2.156,0.533,2.763c0.356,0.607,1.015,0.899,1.977,0.876c1.024,0,2.279-0.561,3.765-1.685V129.56h8.754
			v39.895h-8.754v-3.74C715.165,168.612,712.184,170.061,709.173,170.061z"/>
		<path fill="#555555" d="M744.782,170.095c-4.204,0-7.227-1.269-9.068-3.808c-1.841-2.538-2.761-6.211-2.761-11.018v-11.557
			c0-4.807,0.92-8.469,2.761-10.985c1.841-2.516,4.863-3.774,9.068-3.774c3.954,0,6.825,1,8.613,2.999c1.788,2,2.683,5.1,2.683,9.3
			v3.235h-8.189v-3.403c0-2.022-0.224-3.431-0.674-4.229c-0.451-0.797-1.229-1.196-2.338-1.196c-1.234,0-2.066,0.472-2.495,1.415
			c-0.428,0.943-0.643,2.696-0.643,5.256v14.556c0,2.539,0.235,4.252,0.705,5.138c0.471,0.888,1.281,1.331,2.432,1.331
			c1.171,0,1.965-0.432,2.385-1.297c0.417-0.865,0.627-2.174,0.627-3.926v-4.279h8.189v3.774c0,4.133-0.915,7.244-2.745,9.334
			C751.502,169.05,748.651,170.095,744.782,170.095z"/>
		<path fill="#555555" d="M772.205,169.994c-1.695-0.023-3.133-0.326-4.315-0.91c-1.182-0.584-2.091-1.42-2.729-2.51
			c-0.639-1.089-1.098-2.308-1.381-3.656s-0.423-2.92-0.423-4.717v-22.407h-3.671v-6.234h3.671v-11.726h8.816v11.726h5.648v6.234
			h-5.648v23.014c0,1.303,0.267,2.241,0.801,2.813c0.533,0.573,1.385,0.871,2.557,0.893c0.816,0.023,1.705-0.045,2.666-0.202v7.211
			C775.707,169.881,773.711,170.039,772.205,169.994z"/>
		<path fill="#555555" d="M783.468,123.259v-7.952h8.817v7.952H783.468z M783.468,169.455V129.56h8.786v39.895H783.468z"/>
		<path fill="#555555" d="M810.326,170.095c-3.996,0-6.971-1.207-8.927-3.622c-1.956-2.414-2.934-5.868-2.934-10.361v-13.175
			c0-4.493,0.978-7.946,2.934-10.362c1.955-2.414,4.931-3.622,8.927-3.622c4.015,0,7.012,1.208,8.988,3.622
			c1.977,2.415,2.965,5.869,2.965,10.362v13.175c0,4.493-0.988,7.947-2.965,10.361C817.337,168.888,814.341,170.095,810.326,170.095
			z M810.357,163.457c0.71,0,1.292-0.168,1.741-0.505c0.45-0.337,0.773-0.859,0.973-1.567c0.198-0.708,0.329-1.393,0.392-2.056
			c0.062-0.662,0.094-1.521,0.094-2.577v-14.455c0-0.831-0.015-1.521-0.046-2.072c-0.032-0.55-0.106-1.151-0.22-1.803
			c-0.115-0.651-0.288-1.162-0.517-1.533c-0.23-0.37-0.544-0.684-0.941-0.943c-0.397-0.257-0.889-0.387-1.475-0.387
			c-0.711,0-1.292,0.175-1.742,0.522c-0.45,0.349-0.773,0.876-0.972,1.584c-0.199,0.707-0.33,1.393-0.392,2.055
			c-0.063,0.663-0.095,1.522-0.095,2.578v14.455c0,0.831,0.016,1.522,0.047,2.073c0.031,0.551,0.105,1.146,0.219,1.785
			c0.115,0.641,0.288,1.146,0.518,1.517c0.229,0.37,0.543,0.685,0.941,0.943C809.279,163.328,809.771,163.457,810.357,163.457z"/>
		<path fill="#555555" d="M828.304,169.455V129.56h8.785v3.909c2.99-3.01,6.013-4.515,9.068-4.515c2.112,0,3.655,0.831,4.628,2.493
			c0.973,1.663,1.458,3.706,1.458,6.133v31.876h-8.785v-29.787c0-1.258-0.168-2.19-0.502-2.797
			c-0.335-0.607-0.984-0.898-1.945-0.876c-1.088,0.023-2.395,0.629-3.922,1.82v31.64H828.304z"/>
		<path fill="#555555" d="M874.864,169.455l0.848-55.867h9.726l7.53,39.255l7.75-39.255h9.506l0.879,55.867h-7.154l-0.628-38.48
			l-7.498,38.48h-5.554l-7.592-38.615l-0.565,38.615H874.864z"/>
		<path fill="#555555" d="M925.41,170.095c-2.343-0.023-4.263-1.005-5.757-2.949c-1.496-1.942-2.244-4.138-2.244-6.587
			c0-2.313,0.356-4.335,1.067-6.065c0.711-1.73,1.877-3.212,3.498-4.448c1.62-1.235,2.965-2.134,4.031-2.696
			c1.067-0.561,2.709-1.303,4.927-2.224c0.628-0.27,1.098-0.472,1.412-0.607v-3.336c0-1.797-0.194-3.111-0.581-3.942
			c-0.387-0.831-1.176-1.247-2.369-1.247c-1.945,0-2.939,1.46-2.98,4.38l-0.126,2.493l-8.409-0.337c0-0.135,0.005-0.382,0.016-0.741
			c0.01-0.359,0.016-0.595,0.016-0.708c0.272-4.178,1.427-7.244,3.466-9.199c2.04-1.954,4.953-2.931,8.739-2.931
			c3.66,0,6.374,1.067,8.141,3.201c1.768,2.134,2.651,5.155,2.651,9.064v18.229c0,3.055,0.23,6.391,0.691,10.007h-7.938
			c-0.482-2.606-0.785-4.56-0.91-5.863c-0.523,1.842-1.396,3.387-2.62,4.633C928.908,169.472,927.334,170.095,925.41,170.095z
			 M928.766,162.783c0.67,0,1.334-0.27,1.993-0.809s1.187-1.089,1.585-1.651v-10.985c-4.351,2.583-6.527,5.515-6.527,8.794
			c0,1.438,0.256,2.572,0.769,3.403C927.098,162.368,927.826,162.783,928.766,162.783z"/>
		<path fill="#555555" d="M947.341,169.455V129.56h8.785v3.909c2.99-3.01,6.013-4.515,9.068-4.515c2.112,0,3.655,0.831,4.628,2.493
			c0.973,1.663,1.458,3.706,1.458,6.133v31.876h-8.785v-29.787c0-1.258-0.168-2.19-0.502-2.797
			c-0.335-0.607-0.984-0.898-1.945-0.876c-1.088,0.023-2.395,0.629-3.922,1.82v31.64H947.341z"/>
		<path fill="#555555" d="M984.929,170.095c-2.343-0.023-4.263-1.005-5.757-2.949c-1.496-1.942-2.244-4.138-2.244-6.587
			c0-2.313,0.356-4.335,1.067-6.065c0.711-1.73,1.877-3.212,3.498-4.448c1.62-1.235,2.965-2.134,4.031-2.696
			c1.067-0.561,2.709-1.303,4.927-2.224c0.628-0.27,1.098-0.472,1.412-0.607v-3.336c0-1.797-0.194-3.111-0.581-3.942
			c-0.387-0.831-1.176-1.247-2.369-1.247c-1.945,0-2.939,1.46-2.98,4.38l-0.126,2.493l-8.409-0.337c0-0.135,0.005-0.382,0.016-0.741
			c0.01-0.359,0.016-0.595,0.016-0.708c0.272-4.178,1.427-7.244,3.466-9.199c2.04-1.954,4.953-2.931,8.739-2.931
			c3.66,0,6.374,1.067,8.141,3.201c1.768,2.134,2.651,5.155,2.651,9.064v18.229c0,3.055,0.23,6.391,0.691,10.007h-7.938
			c-0.482-2.606-0.785-4.56-0.91-5.863c-0.523,1.842-1.396,3.387-2.62,4.633C988.427,169.472,986.853,170.095,984.929,170.095z
			 M988.285,162.783c0.67,0,1.334-0.27,1.993-0.809s1.187-1.089,1.585-1.651v-10.985c-4.351,2.583-6.527,5.515-6.527,8.794
			c0,1.438,0.256,2.572,0.769,3.403C986.617,162.368,987.345,162.783,988.285,162.783z"/>
		<path fill="#555555" d="M1019.692,181.551c-1.109,0-2.076-0.012-2.903-0.034c-0.826-0.023-1.783-0.084-2.871-0.185
			c-1.087-0.102-2.024-0.248-2.808-0.439c-0.784-0.191-1.589-0.455-2.415-0.792c-0.827-0.337-1.497-0.736-2.009-1.196
			c-0.513-0.461-0.936-1.045-1.27-1.752c-0.335-0.708-0.502-1.5-0.502-2.376c0-3.347,1.746-6.166,5.239-8.458
			c-2.51-0.921-3.838-2.414-3.985-4.481c-0.105-1.437,0.178-2.679,0.848-3.724c0.669-1.044,1.808-2.274,3.42-3.689
			c-1.381-1.123-2.416-2.527-3.106-4.212c-0.691-1.685-1.036-3.942-1.036-6.773c0-4.897,0.989-8.536,2.965-10.917
			c1.976-2.381,4.837-3.572,8.581-3.572c3.848,0,6.506,1.303,7.969,3.909c0.461-0.607,1.156-1.325,2.087-2.157
			c0.93-0.831,1.908-1.516,2.933-2.055l1.224-0.607l2.071,5.256c-0.732,0.202-1.841,0.607-3.326,1.213
			c-1.486,0.607-2.478,1.078-2.98,1.415c0.397,0.787,0.742,1.893,1.035,3.319c0.293,1.427,0.439,2.859,0.439,4.296
			c0,9.12-3.714,13.68-11.138,13.68c-0.607,0-1.438-0.095-2.494-0.286c-1.056-0.191-1.741-0.354-2.055-0.489
			c-0.711,1.146-1.046,2.022-1.004,2.628c0.062,0.899,1.151,1.46,3.263,1.685c0.251,0.045,1.36,0.174,3.326,0.387
			c1.965,0.214,3.116,0.343,3.451,0.388c3.116,0.36,5.396,1.331,6.84,2.914c1.443,1.584,2.165,3.847,2.165,6.79
			c0,3.526-0.92,6.127-2.761,7.801C1027.044,180.714,1023.98,181.551,1019.692,181.551z M1019.629,174.913
			c1.799,0,3.111-0.247,3.938-0.741c0.826-0.494,1.25-1.292,1.27-2.392c0.063-1.191-0.219-2.061-0.847-2.612
			c-0.628-0.55-1.767-0.904-3.42-1.061l-5.898-0.607c-1.276,1.595-1.914,3.066-1.914,4.414c0,0.719,0.162,1.28,0.487,1.685
			c0.324,0.404,0.993,0.725,2.008,0.96C1016.266,174.796,1017.726,174.913,1019.629,174.913z M1017.935,151.125
			c1.464,0,2.416-0.584,2.856-1.752c0.439-1.168,0.659-3.235,0.659-6.2c0-3.055-0.21-5.178-0.628-6.368
			c-0.418-1.19-1.36-1.786-2.824-1.786c-1.485,0-2.447,0.601-2.886,1.802c-0.44,1.202-0.66,3.319-0.66,6.352
			c0,1.078,0.021,1.994,0.063,2.746c0.041,0.753,0.136,1.478,0.283,2.174c0.146,0.697,0.345,1.253,0.595,1.668
			c0.251,0.416,0.585,0.747,1.004,0.994C1016.815,151.001,1017.328,151.125,1017.935,151.125z"/>
		<path fill="#555555" d="M1047.93,170.095c-4.247,0-7.3-1.258-9.161-3.774c-1.862-2.516-2.793-6.234-2.793-11.153V143.88
			c0-4.92,0.942-8.637,2.824-11.153c1.882-2.516,4.915-3.774,9.099-3.774c2.217,0,4.084,0.349,5.6,1.045
			c1.516,0.697,2.699,1.752,3.546,3.167c0.847,1.415,1.448,3.049,1.803,4.903c0.356,1.853,0.534,4.083,0.534,6.688v5.223h-14.684
			v5.998c0,0.831,0.005,1.478,0.016,1.937c0.01,0.461,0.047,1.017,0.11,1.668c0.062,0.652,0.162,1.157,0.298,1.516
			c0.136,0.36,0.319,0.724,0.549,1.095c0.23,0.37,0.533,0.635,0.91,0.792c0.376,0.157,0.816,0.236,1.318,0.236
			c1.171,0,1.987-0.443,2.447-1.331c0.46-0.887,0.69-2.173,0.69-3.858v-2.291h8.315v1.584c0,4.133-0.958,7.295-2.872,9.485
			C1054.566,169,1051.716,170.095,1047.93,170.095z M1044.698,145.262h6.338v-3.808c0-2.022-0.235-3.471-0.706-4.347
			c-0.47-0.876-1.302-1.314-2.494-1.314c-1.214,0-2.04,0.494-2.479,1.483c-0.438,0.989-0.659,2.786-0.659,5.391V145.262z"/>
		<path fill="#555555" d="M1065.375,169.455V129.56h8.345v3.504c2.489-2.808,5.428-4.212,8.816-4.212
			c3.096,0,5.156,1.629,6.182,4.886c2.614-3.257,5.741-4.886,9.38-4.886c2.071,0,3.734,0.809,4.989,2.426s1.883,3.965,1.883,7.042
			v31.134h-8.346v-30.326c0-1.46-0.224-2.493-0.674-3.1c-0.451-0.607-1.115-0.898-1.993-0.876c-1.527,0.045-3.065,0.82-4.613,2.325
			c0,0.09,0.005,0.225,0.016,0.404c0.01,0.18,0.016,0.326,0.016,0.438v31.134h-8.315v-30.326c0-1.46-0.224-2.493-0.674-3.1
			c-0.451-0.607-1.125-0.898-2.024-0.876c-1.464,0.045-3.012,0.831-4.644,2.359v31.943H1065.375z"/>
		<path fill="#555555" d="M1122.728,170.095c-4.247,0-7.3-1.258-9.161-3.774c-1.862-2.516-2.793-6.234-2.793-11.153V143.88
			c0-4.92,0.942-8.637,2.824-11.153c1.882-2.516,4.915-3.774,9.099-3.774c2.217,0,4.084,0.349,5.6,1.045
			c1.516,0.697,2.699,1.752,3.546,3.167c0.847,1.415,1.448,3.049,1.803,4.903c0.356,1.853,0.534,4.083,0.534,6.688v5.223h-14.684
			v5.998c0,0.831,0.005,1.478,0.016,1.937c0.01,0.461,0.047,1.017,0.11,1.668c0.062,0.652,0.162,1.157,0.298,1.516
			c0.136,0.36,0.319,0.724,0.549,1.095c0.23,0.37,0.533,0.635,0.91,0.792c0.376,0.157,0.816,0.236,1.318,0.236
			c1.171,0,1.987-0.443,2.447-1.331c0.46-0.887,0.69-2.173,0.69-3.858v-2.291h8.315v1.584c0,4.133-0.958,7.295-2.872,9.485
			C1129.365,169,1126.514,170.095,1122.728,170.095z M1119.496,145.262h6.338v-3.808c0-2.022-0.235-3.471-0.706-4.347
			c-0.47-0.876-1.302-1.314-2.494-1.314c-1.214,0-2.04,0.494-2.479,1.483c-0.438,0.989-0.659,2.786-0.659,5.391V145.262z"/>
		<path fill="#555555" d="M1140.173,169.455V129.56h8.785v3.909c2.99-3.01,6.013-4.515,9.068-4.515c2.112,0,3.655,0.831,4.628,2.493
			c0.973,1.663,1.458,3.706,1.458,6.133v31.876h-8.785v-29.787c0-1.258-0.168-2.19-0.502-2.797
			c-0.335-0.607-0.984-0.898-1.945-0.876c-1.088,0.023-2.395,0.629-3.922,1.82v31.64H1140.173z"/>
		<path fill="#555555" d="M1180.961,169.994c-1.695-0.023-3.133-0.326-4.315-0.91c-1.182-0.584-2.091-1.42-2.729-2.51
			c-0.639-1.089-1.098-2.308-1.381-3.656c-0.283-1.348-0.423-2.92-0.423-4.717v-22.407h-3.671v-6.234h3.671v-11.726h8.816v11.726
			h5.648v6.234h-5.648v23.014c0,1.303,0.267,2.241,0.801,2.813c0.533,0.573,1.385,0.871,2.557,0.893
			c0.816,0.023,1.705-0.045,2.667-0.202v7.211C1184.463,169.881,1182.466,170.039,1180.961,169.994z"/>
	</g>
	<g>
		<path fill="#555555" d="M539.876,256.971v-55.866h9.35v55.866H539.876z"/>
		<path fill="#555555" d="M556.693,256.971v-39.895h8.785v3.909c2.991-3.009,6.013-4.515,9.067-4.515
			c2.113,0,3.656,0.832,4.628,2.493c0.973,1.663,1.459,3.706,1.459,6.133v31.875h-8.785v-29.786c0-1.257-0.167-2.191-0.502-2.796
			c-0.335-0.608-0.983-0.898-1.945-0.877c-1.088,0.023-2.395,0.63-3.922,1.821v31.639H556.693z"/>
		<path fill="#555555" d="M596.76,257.611c-3.075,0-5.595-0.919-7.561-2.762c-1.966-1.841-3.316-4.492-4.047-7.952l6.652-2.595
			c0.46,2.203,1.108,3.87,1.945,5.005c0.836,1.135,1.882,1.68,3.138,1.633c0.92-0.022,1.678-0.376,2.275-1.062
			c0.596-0.684,0.873-1.521,0.831-2.511c-0.084-1.436-1.308-3.245-3.671-5.423l-4.989-4.583c-3.598-3.325-5.354-6.795-5.271-10.412
			c0.063-3.189,1.072-5.734,3.028-7.632c1.955-1.898,4.45-2.848,7.483-2.848c2.907,0,5.271,0.943,7.091,2.83
			c1.82,1.887,3.001,4.415,3.546,7.581l-5.773,2.595c-0.795-4.133-2.28-6.211-4.455-6.234c-0.921-0.021-1.658,0.282-2.212,0.91
			c-0.555,0.63-0.832,1.381-0.832,2.258c-0.021,1.213,1.014,2.796,3.107,4.751l5.082,4.953c0.857,0.809,1.569,1.533,2.134,2.173
			c0.565,0.642,1.155,1.422,1.772,2.342c0.617,0.923,1.077,1.911,1.38,2.965c0.303,1.058,0.455,2.191,0.455,3.404
			c0,3.37-1.041,5.981-3.122,7.835C602.663,256.686,600.001,257.611,596.76,257.611z"/>
		<path fill="#555555" d="M612.604,270.114v-53.037h8.785v3.066c2.3-2.47,4.801-3.694,7.498-3.672
			c1.318,0.023,2.483,0.349,3.498,0.977c1.015,0.63,1.81,1.41,2.385,2.343c0.575,0.932,1.046,2.033,1.412,3.302
			c0.365,1.269,0.612,2.448,0.737,3.537c0.126,1.09,0.188,2.197,0.188,3.319v13.074c0,2.022-0.157,3.88-0.471,5.576
			c-0.314,1.696-0.806,3.235-1.475,4.617c-0.67,1.38-1.584,2.458-2.745,3.235c-1.162,0.775-2.527,1.161-4.095,1.161
			c-2.301,0-4.613-1.201-6.934-3.605v16.107H612.604z M625.248,250.84c0.648,0,1.192-0.197,1.631-0.589
			c0.44-0.394,0.757-0.966,0.957-1.72c0.199-0.752,0.335-1.527,0.408-2.323c0.072-0.799,0.11-1.758,0.11-2.883v-13.747
			c0-0.92-0.047-1.746-0.141-2.476c-0.095-0.729-0.256-1.426-0.487-2.089c-0.23-0.662-0.575-1.168-1.035-1.516
			c-0.461-0.348-1.015-0.511-1.663-0.489c-1.151,0.023-2.365,0.551-3.64,1.583v25.002
			C622.644,250.423,623.931,250.84,625.248,250.84z"/>
		<path fill="#555555" d="M654.49,257.611c-4.246,0-7.299-1.257-9.161-3.774c-1.862-2.515-2.792-6.232-2.792-11.153v-11.287
			c0-4.921,0.94-8.637,2.823-11.154c1.883-2.516,4.916-3.774,9.099-3.774c2.217,0,4.084,0.349,5.6,1.045s2.699,1.752,3.546,3.166
			c0.847,1.416,1.448,3.05,1.804,4.903c0.355,1.853,0.533,4.083,0.533,6.688v5.224h-14.684v5.997c0,0.833,0.005,1.479,0.016,1.937
			c0.01,0.461,0.047,1.018,0.11,1.668c0.063,0.654,0.162,1.159,0.299,1.517c0.136,0.36,0.318,0.724,0.548,1.096
			c0.23,0.37,0.534,0.634,0.91,0.791c0.376,0.159,0.816,0.235,1.318,0.235c1.172,0,1.987-0.443,2.447-1.33
			c0.46-0.887,0.691-2.175,0.691-3.858v-2.291h8.314v1.583c0,4.134-0.958,7.296-2.871,9.485
			C661.126,256.517,658.276,257.611,654.49,257.611z M651.258,232.779h6.339v-3.807c0-2.022-0.235-3.471-0.706-4.347
			c-0.471-0.876-1.303-1.314-2.494-1.314c-1.214,0-2.04,0.494-2.478,1.483c-0.44,0.989-0.66,2.785-0.66,5.391V232.779z"/>
		<path fill="#555555" d="M683.073,257.611c-4.204,0-7.228-1.267-9.068-3.806c-1.841-2.539-2.761-6.212-2.761-11.02v-11.556
			c0-4.807,0.92-8.468,2.761-10.985c1.84-2.516,4.863-3.774,9.068-3.774c3.953,0,6.824,1,8.612,2.998
			c1.788,2.001,2.682,5.101,2.682,9.3v3.235h-8.188V228.6c0-2.022-0.225-3.431-0.675-4.229s-1.229-1.196-2.338-1.196
			c-1.234,0-2.066,0.471-2.494,1.414c-0.429,0.943-0.643,2.696-0.643,5.256v14.556c0,2.541,0.235,4.253,0.706,5.14
			c0.471,0.887,1.28,1.33,2.431,1.33c1.172,0,1.966-0.43,2.385-1.296c0.418-0.865,0.628-2.175,0.628-3.927v-4.279h8.188v3.774
			c0,4.134-0.915,7.244-2.745,9.334C689.792,256.567,686.943,257.611,683.073,257.611z"/>
		<path fill="#555555" d="M710.495,257.51c-1.695-0.022-3.133-0.326-4.314-0.909c-1.182-0.583-2.092-1.42-2.73-2.511
			c-0.639-1.088-1.098-2.307-1.381-3.655c-0.282-1.348-0.423-2.921-0.423-4.717v-22.407h-3.67v-6.234h3.67v-11.726h8.817v11.726
			h5.647v6.234h-5.647v23.013c0,1.304,0.267,2.241,0.8,2.814s1.385,0.871,2.557,0.893c0.816,0.022,1.705-0.044,2.667-0.203v7.212
			C713.998,257.398,712.001,257.555,710.495,257.51z"/>
		<path fill="#555555" d="M721.758,210.776v-7.952h8.816v7.952H721.758z M721.758,256.971v-39.895h8.785v39.895H721.758z"/>
		<path fill="#555555" d="M748.615,257.611c-3.995,0-6.97-1.207-8.926-3.621c-1.956-2.414-2.934-5.868-2.934-10.362v-13.174
			c0-4.493,0.978-7.947,2.934-10.362c1.955-2.414,4.931-3.622,8.926-3.622c4.016,0,7.013,1.208,8.989,3.622
			c1.977,2.415,2.965,5.869,2.965,10.362v13.174c0,4.494-0.989,7.948-2.965,10.362C755.628,256.404,752.631,257.611,748.615,257.611
			z M748.646,250.975c0.711,0,1.292-0.169,1.742-0.507c0.45-0.336,0.773-0.859,0.973-1.565c0.198-0.708,0.329-1.394,0.392-2.056
			c0.062-0.662,0.094-1.521,0.094-2.579v-14.454c0-0.831-0.015-1.522-0.047-2.072c-0.031-0.55-0.105-1.151-0.219-1.803
			c-0.115-0.651-0.288-1.162-0.518-1.533c-0.23-0.37-0.544-0.685-0.94-0.943c-0.398-0.257-0.89-0.387-1.476-0.387
			c-0.711,0-1.292,0.174-1.741,0.522c-0.45,0.349-0.773,0.876-0.973,1.584c-0.199,0.707-0.329,1.393-0.392,2.055
			c-0.062,0.663-0.094,1.523-0.094,2.578v14.454c0,0.833,0.015,1.523,0.047,2.074c0.031,0.549,0.104,1.145,0.219,1.784
			c0.115,0.642,0.288,1.147,0.518,1.517c0.229,0.37,0.543,0.686,0.94,0.943C747.569,250.846,748.061,250.975,748.646,250.975z"/>
		<path fill="#555555" d="M766.593,256.971v-39.895h8.786v3.909c2.99-3.009,6.013-4.515,9.067-4.515
			c2.113,0,3.656,0.832,4.628,2.493c0.973,1.663,1.459,3.706,1.459,6.133v31.875h-8.785v-29.786c0-1.257-0.168-2.191-0.502-2.796
			c-0.335-0.608-0.984-0.898-1.945-0.877c-1.088,0.023-2.396,0.63-3.922,1.821v31.639H766.593z"/>
		<path fill="#555555" d="M826.364,257.645c-9.162,0-13.973-5.683-14.433-17.049l8.251-1.855c0.209,7.393,2.176,11.086,5.899,11.086
			c1.443,0,2.515-0.471,3.216-1.414c0.701-0.943,1.051-2.213,1.051-3.808c0-1.551-0.262-2.971-0.785-4.263
			c-0.523-1.291-1.13-2.348-1.82-3.166c-0.69-0.821-1.674-1.837-2.949-3.05l-6.84-6.368c-2.009-1.887-3.504-3.847-4.487-5.88
			c-0.984-2.033-1.475-4.577-1.475-7.632c0-4.335,1.187-7.705,3.561-10.109c2.374-2.403,5.633-3.627,9.774-3.673
			c1.903-0.021,3.587,0.231,5.051,0.758c1.465,0.528,2.672,1.236,3.624,2.123c0.952,0.887,1.746,1.994,2.385,3.318
			c0.638,1.327,1.113,2.702,1.427,4.128c0.314,1.427,0.533,3.015,0.659,4.768l-8.095,1.719c-0.042-1.123-0.11-2.1-0.203-2.932
			c-0.095-0.83-0.257-1.673-0.487-2.527c-0.23-0.853-0.528-1.544-0.894-2.072c-0.366-0.528-0.858-0.949-1.475-1.263
			c-0.618-0.315-1.334-0.439-2.149-0.371c-1.401,0.091-2.473,0.589-3.216,1.5c-0.743,0.909-1.113,2.128-1.113,3.655
			c0,1.798,0.329,3.275,0.988,4.432s1.689,2.398,3.091,3.724l6.776,6.335c1.13,1.1,2.113,2.168,2.95,3.201
			c0.836,1.034,1.636,2.213,2.4,3.539c0.763,1.325,1.344,2.786,1.741,4.379c0.397,1.597,0.596,3.281,0.596,5.055
			c0,4.066-1.198,7.369-3.593,9.905C833.396,256.378,830.254,257.645,826.364,257.645z"/>
		<path fill="#555555" d="M855.667,257.611c-4.246,0-7.299-1.257-9.161-3.774c-1.862-2.515-2.792-6.232-2.792-11.153v-11.287
			c0-4.921,0.94-8.637,2.823-11.154c1.883-2.516,4.916-3.774,9.099-3.774c2.217,0,4.084,0.349,5.6,1.045s2.699,1.752,3.546,3.166
			c0.847,1.416,1.448,3.05,1.804,4.903c0.355,1.853,0.533,4.083,0.533,6.688v5.224h-14.684v5.997c0,0.833,0.005,1.479,0.016,1.937
			c0.01,0.461,0.047,1.018,0.11,1.668c0.063,0.654,0.162,1.159,0.299,1.517c0.136,0.36,0.318,0.724,0.548,1.096
			c0.23,0.37,0.534,0.634,0.91,0.791c0.376,0.159,0.816,0.235,1.318,0.235c1.172,0,1.988-0.443,2.447-1.33
			c0.46-0.887,0.691-2.175,0.691-3.858v-2.291h8.314v1.583c0,4.134-0.958,7.296-2.871,9.485
			C862.304,256.517,859.453,257.611,855.667,257.611z M852.436,232.779h6.339v-3.807c0-2.022-0.235-3.471-0.706-4.347
			c-0.471-0.876-1.303-1.314-2.494-1.314c-1.214,0-2.04,0.494-2.478,1.483c-0.44,0.989-0.66,2.785-0.66,5.391V232.779z"/>
		<path fill="#555555" d="M873.238,256.971v-39.895h8.785v6.133c1.234-2.359,2.483-4.054,3.749-5.088
			c1.265-1.032,2.62-1.549,4.064-1.549c0.44,0,0.878,0.056,1.318,0.168v9.333c-0.984-0.404-1.998-0.605-3.044-0.605
			c-1.254,0.045-2.358,0.382-3.31,1.01c-0.952,0.63-1.877,1.675-2.776,3.134v27.36H873.238z"/>
		<path fill="#555555" d="M900.095,256.971l-7.248-39.895h8.597l3.671,28.943l3.639-28.943h8.472l-7.186,39.895H900.095z"/>
		<path fill="#555555" d="M921.587,210.776v-7.952h8.816v7.952H921.587z M921.587,256.971v-39.895h8.785v39.895H921.587z"/>
		<path fill="#555555" d="M948.413,257.611c-4.204,0-7.228-1.267-9.068-3.806c-1.841-2.539-2.761-6.212-2.761-11.02v-11.556
			c0-4.807,0.92-8.468,2.761-10.985c1.84-2.516,4.863-3.774,9.068-3.774c3.953,0,6.824,1,8.612,2.998
			c1.788,2.001,2.683,5.101,2.683,9.3v3.235h-8.188V228.6c0-2.022-0.225-3.431-0.675-4.229c-0.45-0.798-1.229-1.196-2.338-1.196
			c-1.234,0-2.066,0.471-2.494,1.414c-0.429,0.943-0.643,2.696-0.643,5.256v14.556c0,2.541,0.235,4.253,0.706,5.14
			c0.471,0.887,1.28,1.33,2.431,1.33c1.172,0,1.966-0.43,2.385-1.296c0.418-0.865,0.628-2.175,0.628-3.927v-4.279h8.188v3.774
			c0,4.134-0.915,7.244-2.745,9.334C955.132,256.567,952.282,257.611,948.413,257.611z"/>
		<path fill="#555555" d="M976.744,257.611c-4.246,0-7.299-1.257-9.161-3.774c-1.862-2.515-2.792-6.232-2.792-11.153v-11.287
			c0-4.921,0.94-8.637,2.823-11.154c1.883-2.516,4.915-3.774,9.099-3.774c2.217,0,4.084,0.349,5.6,1.045s2.699,1.752,3.546,3.166
			c0.847,1.416,1.448,3.05,1.805,4.903c0.355,1.853,0.533,4.083,0.533,6.688v5.224h-14.684v5.997c0,0.833,0.005,1.479,0.016,1.937
			c0.01,0.461,0.047,1.018,0.11,1.668c0.063,0.654,0.162,1.159,0.299,1.517c0.136,0.36,0.318,0.724,0.548,1.096
			c0.23,0.37,0.534,0.634,0.91,0.791c0.376,0.159,0.816,0.235,1.318,0.235c1.172,0,1.988-0.443,2.447-1.33
			c0.46-0.887,0.691-2.175,0.691-3.858v-2.291h8.314v1.583c0,4.134-0.958,7.296-2.871,9.485
			C983.38,256.517,980.53,257.611,976.744,257.611z M973.512,232.779h6.339v-3.807c0-2.022-0.235-3.471-0.706-4.347
			c-0.471-0.876-1.303-1.314-2.494-1.314c-1.214,0-2.04,0.494-2.478,1.483c-0.44,0.989-0.66,2.785-0.66,5.391V232.779z"/>
		<path fill="#555555" d="M1003.821,257.611c-3.075,0-5.595-0.919-7.561-2.762c-1.966-1.841-3.316-4.492-4.047-7.952l6.652-2.595
			c0.46,2.203,1.108,3.87,1.945,5.005c0.836,1.135,1.882,1.68,3.137,1.633c0.92-0.022,1.679-0.376,2.275-1.062
			c0.595-0.684,0.873-1.521,0.831-2.511c-0.083-1.436-1.308-3.245-3.67-5.423l-4.989-4.583c-3.598-3.325-5.355-6.795-5.272-10.412
			c0.063-3.189,1.072-5.734,3.029-7.632c1.955-1.898,4.45-2.848,7.482-2.848c2.907,0,5.272,0.943,7.091,2.83
			s3.001,4.415,3.546,7.581l-5.773,2.595c-0.795-4.133-2.28-6.211-4.455-6.234c-0.921-0.021-1.659,0.282-2.212,0.91
			c-0.555,0.63-0.832,1.381-0.832,2.258c-0.021,1.213,1.014,2.796,3.106,4.751l5.082,4.953c0.858,0.809,1.569,1.533,2.134,2.173
			c0.564,0.642,1.155,1.422,1.772,2.342c0.617,0.923,1.077,1.911,1.38,2.965c0.304,1.058,0.456,2.191,0.456,3.404
			c0,3.37-1.041,5.981-3.122,7.835C1009.725,256.686,1007.063,257.611,1003.821,257.611z"/>
	</g>
	<g>
		<path fill="#555555" d="M539.5,344.216l0.847-55.867h9.726l7.53,39.254l7.749-39.254h9.507l0.879,55.867h-7.154l-0.627-38.48
			l-7.499,38.48h-5.553l-7.593-38.615l-0.565,38.615H539.5z"/>
		<path fill="#555555" d="M589.532,344.856c-2.343-0.022-4.262-1.005-5.757-2.948c-1.496-1.942-2.244-4.138-2.244-6.587
			c0-2.313,0.356-4.335,1.067-6.065c0.711-1.729,1.877-3.212,3.498-4.448c1.621-1.235,2.965-2.133,4.032-2.696
			c1.067-0.561,2.709-1.303,4.926-2.224c0.627-0.27,1.098-0.472,1.412-0.607v-3.335c0-1.797-0.194-3.111-0.58-3.943
			c-0.387-0.831-1.177-1.247-2.369-1.247c-1.945,0-2.939,1.461-2.981,4.381l-0.126,2.492l-8.408-0.336
			c0-0.135,0.005-0.382,0.016-0.742c0.01-0.358,0.016-0.594,0.016-0.707c0.272-4.178,1.428-7.245,3.467-9.198
			c2.039-1.955,4.952-2.932,8.738-2.932c3.66,0,6.374,1.067,8.142,3.202c1.767,2.134,2.651,5.155,2.651,9.064v18.229
			c0,3.056,0.23,6.392,0.69,10.008h-7.938c-0.481-2.605-0.784-4.559-0.91-5.863c-0.523,1.843-1.396,3.387-2.62,4.633
			C593.03,344.233,591.456,344.856,589.532,344.856z M592.889,337.544c0.669,0,1.333-0.27,1.992-0.809
			c0.659-0.539,1.186-1.089,1.584-1.651v-10.986c-4.351,2.584-6.526,5.516-6.526,8.795c0,1.438,0.255,2.573,0.768,3.404
			C591.22,337.129,591.947,337.544,592.889,337.544z"/>
		<path fill="#555555" d="M620.864,344.755c-1.695-0.023-3.133-0.326-4.314-0.909c-1.182-0.584-2.093-1.421-2.73-2.511
			c-0.638-1.089-1.098-2.308-1.38-3.656c-0.282-1.348-0.423-2.92-0.423-4.717v-22.407h-3.671v-6.234h3.671v-11.726h8.817v11.726
			h5.647v6.234h-5.647v23.013c0,1.304,0.267,2.241,0.8,2.813c0.533,0.573,1.385,0.871,2.557,0.893
			c0.816,0.023,1.705-0.044,2.667-0.202v7.211C624.367,344.643,622.37,344.799,620.864,344.755z"/>
		<path fill="#555555" d="M642.595,344.856c-4.247,0-7.3-1.257-9.162-3.774c-1.862-2.515-2.792-6.233-2.792-11.153v-11.287
			c0-4.921,0.941-8.637,2.824-11.154c1.882-2.516,4.914-3.774,9.099-3.774c2.217,0,4.084,0.349,5.6,1.045
			c1.516,0.696,2.698,1.752,3.546,3.166c0.847,1.416,1.447,3.05,1.803,4.903c0.356,1.853,0.533,4.083,0.533,6.688v5.223h-14.683
			v5.998c0,0.832,0.005,1.478,0.016,1.937c0.01,0.461,0.046,1.017,0.11,1.668c0.062,0.653,0.162,1.158,0.298,1.517
			c0.136,0.36,0.319,0.724,0.549,1.095c0.23,0.37,0.533,0.635,0.91,0.792c0.376,0.158,0.816,0.235,1.318,0.235
			c1.171,0,1.987-0.443,2.447-1.331c0.46-0.887,0.69-2.174,0.69-3.857v-2.291h8.314v1.583c0,4.134-0.957,7.295-2.871,9.485
			C649.23,343.761,646.381,344.856,642.595,344.856z M639.363,320.023h6.338v-3.807c0-2.022-0.235-3.471-0.706-4.347
			c-0.471-0.876-1.302-1.314-2.494-1.314c-1.213,0-2.039,0.494-2.478,1.483c-0.44,0.989-0.659,2.785-0.659,5.391V320.023z"/>
		<path fill="#555555" d="M659.651,344.216v-39.895h8.785v6.133c1.234-2.359,2.484-4.055,3.75-5.089
			c1.265-1.032,2.62-1.549,4.064-1.549c0.439,0,0.878,0.056,1.318,0.168v9.333c-0.984-0.404-1.999-0.605-3.044-0.605
			c-1.255,0.045-2.359,0.382-3.31,1.01c-0.953,0.63-1.878,1.675-2.777,3.134v27.361H659.651z"/>
		<path fill="#555555" d="M681.57,298.02v-7.952h8.817v7.952H681.57z M681.57,344.216v-39.895h8.785v39.895H681.57z"/>
		<path fill="#555555" d="M703.897,344.856c-2.343-0.022-4.262-1.005-5.757-2.948c-1.496-1.942-2.243-4.138-2.243-6.587
			c0-2.313,0.355-4.335,1.066-6.065c0.711-1.729,1.878-3.212,3.498-4.448c1.621-1.235,2.965-2.133,4.032-2.696
			c1.066-0.561,2.709-1.303,4.926-2.224c0.628-0.27,1.098-0.472,1.412-0.607v-3.335c0-1.797-0.194-3.111-0.58-3.943
			c-0.387-0.831-1.177-1.247-2.369-1.247c-1.945,0-2.939,1.461-2.981,4.381l-0.126,2.492l-8.408-0.336
			c0-0.135,0.004-0.382,0.015-0.742c0.01-0.358,0.016-0.594,0.016-0.707c0.272-4.178,1.427-7.245,3.467-9.198
			c2.039-1.955,4.952-2.932,8.738-2.932c3.66,0,6.374,1.067,8.142,3.202c1.767,2.134,2.651,5.155,2.651,9.064v18.229
			c0,3.056,0.229,6.392,0.69,10.008h-7.938c-0.482-2.605-0.785-4.559-0.91-5.863c-0.523,1.843-1.396,3.387-2.619,4.633
			C707.395,344.233,705.821,344.856,703.897,344.856z M707.254,337.544c0.669,0,1.333-0.27,1.993-0.809
			c0.659-0.539,1.186-1.089,1.584-1.651v-10.986c-4.351,2.584-6.526,5.516-6.526,8.795c0,1.438,0.255,2.573,0.768,3.404
			C705.586,337.129,706.313,337.544,707.254,337.544z"/>
		<path fill="#555555" d="M725.878,344.216v-55.867h8.786v55.867H725.878z"/>
		<path fill="#555555" d="M750.684,344.856c-3.075,0-5.595-0.92-7.561-2.762c-1.966-1.842-3.316-4.493-4.047-7.952l6.651-2.595
			c0.46,2.202,1.108,3.869,1.945,5.004c0.836,1.135,1.882,1.68,3.137,1.634c0.92-0.022,1.679-0.376,2.275-1.062
			c0.595-0.685,0.873-1.521,0.831-2.511c-0.083-1.436-1.308-3.245-3.67-5.424l-4.989-4.583c-3.598-3.324-5.355-6.794-5.272-10.411
			c0.063-3.189,1.072-5.734,3.029-7.632c1.955-1.898,4.45-2.848,7.482-2.848c2.907,0,5.272,0.943,7.091,2.83
			c1.82,1.887,3.001,4.415,3.546,7.581l-5.773,2.595c-0.795-4.133-2.28-6.211-4.455-6.234c-0.921-0.021-1.659,0.282-2.212,0.91
			c-0.555,0.63-0.832,1.381-0.832,2.258c-0.021,1.213,1.014,2.796,3.106,4.751l5.082,4.954c0.858,0.809,1.569,1.533,2.134,2.173
			c0.564,0.641,1.155,1.421,1.772,2.342c0.617,0.922,1.077,1.91,1.38,2.965c0.304,1.057,0.456,2.191,0.456,3.404
			c0,3.37-1.041,5.981-3.122,7.834C756.588,343.929,753.926,344.856,750.684,344.856z"/>
		<path fill="#555555" d="M786.804,344.216v-48.352h-8.723v-7.515h26.637v7.515h-8.44v48.352H786.804z"/>
		<path fill="#555555" d="M818.23,344.856c-4.247,0-7.3-1.257-9.162-3.774c-1.862-2.515-2.792-6.233-2.792-11.153v-11.287
			c0-4.921,0.941-8.637,2.824-11.154c1.882-2.516,4.914-3.774,9.099-3.774c2.217,0,4.084,0.349,5.6,1.045
			c1.516,0.696,2.698,1.752,3.546,3.166c0.847,1.416,1.447,3.05,1.803,4.903c0.356,1.853,0.533,4.083,0.533,6.688v5.223h-14.683
			v5.998c0,0.832,0.005,1.478,0.016,1.937c0.01,0.461,0.046,1.017,0.11,1.668c0.062,0.653,0.162,1.158,0.298,1.517
			c0.136,0.36,0.319,0.724,0.549,1.095c0.23,0.37,0.533,0.635,0.91,0.792c0.376,0.158,0.816,0.235,1.318,0.235
			c1.171,0,1.987-0.443,2.447-1.331c0.46-0.887,0.69-2.174,0.69-3.857v-2.291h8.314v1.583c0,4.134-0.957,7.295-2.871,9.485
			C824.866,343.761,822.016,344.856,818.23,344.856z M814.999,320.023h6.338v-3.807c0-2.022-0.235-3.471-0.706-4.347
			c-0.471-0.876-1.302-1.314-2.494-1.314c-1.213,0-2.039,0.494-2.478,1.483c-0.44,0.989-0.659,2.785-0.659,5.391V320.023z"/>
		<path fill="#555555" d="M844.793,344.856c-3.075,0-5.595-0.92-7.562-2.762c-1.966-1.842-3.315-4.493-4.047-7.952l6.652-2.595
			c0.46,2.202,1.108,3.869,1.945,5.004s1.883,1.68,3.138,1.634c0.919-0.022,1.678-0.376,2.274-1.062
			c0.596-0.685,0.873-1.521,0.832-2.511c-0.085-1.436-1.308-3.245-3.671-5.424l-4.989-4.583c-3.598-3.324-5.354-6.794-5.271-10.411
			c0.062-3.189,1.071-5.734,3.028-7.632c1.955-1.898,4.45-2.848,7.483-2.848c2.907,0,5.271,0.943,7.09,2.83
			c1.821,1.887,3.001,4.415,3.546,7.581l-5.772,2.595c-0.796-4.133-2.28-6.211-4.456-6.234c-0.92-0.021-1.658,0.282-2.212,0.91
			c-0.554,0.63-0.832,1.381-0.832,2.258c-0.021,1.213,1.015,2.796,3.107,4.751l5.082,4.954c0.857,0.809,1.569,1.533,2.133,2.173
			c0.565,0.641,1.156,1.421,1.772,2.342c0.618,0.922,1.077,1.91,1.381,2.965c0.303,1.057,0.455,2.191,0.455,3.404
			c0,3.37-1.04,5.981-3.121,7.834C850.697,343.929,848.035,344.856,844.793,344.856z"/>
		<path fill="#555555" d="M870.477,344.755c-1.694-0.023-3.132-0.326-4.314-0.909c-1.182-0.584-2.092-1.421-2.73-2.511
			c-0.638-1.089-1.097-2.308-1.38-3.656s-0.423-2.92-0.423-4.717v-22.407h-3.671v-6.234h3.671v-11.726h8.816v11.726h5.648v6.234
			h-5.648v23.013c0,1.304,0.267,2.241,0.8,2.813c0.534,0.573,1.386,0.871,2.558,0.893c0.816,0.023,1.704-0.044,2.666-0.202v7.211
			C873.981,344.643,871.984,344.799,870.477,344.755z"/>
		<path fill="#555555" d="M881.228,298.02v-7.952h8.816v7.952H881.228z M881.228,344.216v-39.895h8.785v39.895H881.228z"/>
		<path fill="#555555" d="M896.4,344.216v-39.895h8.786v3.909c2.99-3.009,6.013-4.515,9.067-4.515c2.113,0,3.656,0.832,4.628,2.493
			c0.973,1.663,1.459,3.706,1.459,6.133v31.876h-8.785v-29.787c0-1.257-0.168-2.191-0.502-2.796
			c-0.335-0.608-0.984-0.898-1.945-0.877c-1.088,0.023-2.396,0.63-3.922,1.821v31.639H896.4z"/>
		<path fill="#555555" d="M939.153,356.312c-1.108,0-2.076-0.011-2.902-0.033c-0.827-0.023-1.784-0.085-2.872-0.185
			c-1.087-0.102-2.024-0.247-2.807-0.439c-0.785-0.191-1.59-0.455-2.416-0.792c-0.827-0.337-1.496-0.736-2.009-1.196
			c-0.512-0.461-0.936-1.045-1.27-1.752c-0.335-0.708-0.502-1.5-0.502-2.376c0-3.347,1.746-6.167,5.239-8.458
			c-2.51-0.92-3.838-2.414-3.984-4.481c-0.106-1.437,0.177-2.679,0.847-3.724c0.669-1.044,1.809-2.274,3.42-3.689
			c-1.381-1.122-2.416-2.528-3.106-4.211c-0.69-1.686-1.036-3.943-1.036-6.773c0-4.896,0.989-8.535,2.965-10.917
			c1.976-2.381,4.837-3.572,8.582-3.572c3.848,0,6.505,1.304,7.969,3.909c0.46-0.607,1.156-1.325,2.086-2.156
			c0.93-0.831,1.909-1.516,2.934-2.055l1.223-0.608l2.071,5.256c-0.732,0.203-1.841,0.608-3.326,1.213
			c-1.485,0.608-2.478,1.078-2.98,1.416c0.397,0.787,0.742,1.892,1.035,3.318c0.293,1.427,0.44,2.86,0.44,4.296
			c0,9.121-3.713,13.681-11.138,13.681c-0.607,0-1.438-0.096-2.494-0.287c-1.057-0.191-1.742-0.354-2.055-0.489
			c-0.712,1.146-1.047,2.022-1.005,2.628c0.063,0.899,1.151,1.46,3.263,1.685c0.251,0.045,1.36,0.174,3.326,0.387
			c1.965,0.214,3.116,0.343,3.451,0.388c3.117,0.359,5.396,1.331,6.84,2.914c1.443,1.584,2.166,3.847,2.166,6.79
			c0,3.525-0.921,6.126-2.761,7.8C946.506,355.475,943.441,356.312,939.153,356.312z M939.091,349.675
			c1.798,0,3.111-0.247,3.937-0.741c0.827-0.495,1.25-1.292,1.271-2.392c0.062-1.192-0.22-2.062-0.847-2.612
			c-0.628-0.55-1.768-0.903-3.421-1.061l-5.898-0.607c-1.276,1.595-1.914,3.067-1.914,4.415c0,0.718,0.162,1.279,0.487,1.684
			c0.324,0.404,0.993,0.725,2.008,0.961C935.728,349.557,937.187,349.675,939.091,349.675z M937.396,325.886
			c1.465,0,2.416-0.583,2.856-1.752c0.44-1.168,0.659-3.235,0.659-6.2c0-3.055-0.209-5.177-0.628-6.369
			c-0.418-1.19-1.36-1.785-2.823-1.785c-1.486,0-2.447,0.602-2.887,1.802c-0.44,1.202-0.659,3.319-0.659,6.352
			c0,1.078,0.02,1.994,0.062,2.746c0.042,0.753,0.136,1.478,0.283,2.174c0.146,0.697,0.345,1.252,0.596,1.668
			c0.25,0.416,0.584,0.747,1.004,0.995C936.277,325.763,936.789,325.886,937.396,325.886z"/>
	</g>
</g>
</svg>
