<svg width="1920" height="1080" viewBox="0 0 1920 1080" fill="none" xmlns="http://www.w3.org/2000/svg">
  <defs>
    <linearGradient id="bg" x1="0" y1="0" x2="1920" y2="1080" gradientUnits="userSpaceOnUse">
      <stop offset="0" stop-color="#072238"/>
      <stop offset="0.55" stop-color="#0A4F77"/>
      <stop offset="1" stop-color="#1297C8"/>
    </linearGradient>
    <radialGradient id="glowA" cx="0" cy="0" r="1" gradientUnits="userSpaceOnUse" gradientTransform="translate(330 220) rotate(28) scale(520 420)">
      <stop stop-color="#9BE9FF" stop-opacity="0.38"/>
      <stop offset="1" stop-color="#9BE9FF" stop-opacity="0"/>
    </radialGradient>
    <radialGradient id="glowB" cx="0" cy="0" r="1" gradientUnits="userSpaceOnUse" gradientTransform="translate(1420 870) rotate(-18) scale(700 520)">
      <stop stop-color="#B4F1FF" stop-opacity="0.3"/>
      <stop offset="1" stop-color="#B4F1FF" stop-opacity="0"/>
    </radialGradient>
    <linearGradient id="line" x1="224" y1="0" x2="224" y2="1080" gradientUnits="userSpaceOnUse">
      <stop stop-color="#D9F7FF" stop-opacity="0.25"/>
      <stop offset="1" stop-color="#D9F7FF" stop-opacity="0"/>
    </linearGradient>
  </defs>

  <rect width="1920" height="1080" fill="url(#bg)"/>
  <rect width="1920" height="1080" fill="url(#glowA)"/>
  <rect width="1920" height="1080" fill="url(#glowB)"/>

  <g opacity="0.34">
    <path d="M0 840C310 760 470 940 760 880C1120 804 1290 620 1920 700V1080H0V840Z" fill="#6FE1FF"/>
    <path d="M0 920C350 840 560 1000 860 952C1220 894 1440 760 1920 810V1080H0V920Z" fill="#A5EEFF"/>
  </g>

  <g opacity="0.32">
    <path d="M1180 110L1700 110" stroke="#E7FBFF" stroke-width="2"/>
    <path d="M1220 160L1820 160" stroke="#E7FBFF" stroke-width="2"/>
    <path d="M1270 210L1760 210" stroke="#E7FBFF" stroke-width="2"/>
    <path d="M1320 260L1860 260" stroke="#E7FBFF" stroke-width="2"/>
  </g>

  <g opacity="0.24">
    <circle cx="1545" cy="248" r="6" fill="#F2FFFF"/>
    <circle cx="1615" cy="178" r="4" fill="#F2FFFF"/>
    <circle cx="1718" cy="288" r="5" fill="#F2FFFF"/>
  </g>

  <g opacity="0.2">
    <rect x="220" y="0" width="2" height="1080" fill="url(#line)"/>
    <rect x="360" y="0" width="1.5" height="1080" fill="url(#line)"/>
    <rect x="520" y="0" width="1.2" height="1080" fill="url(#line)"/>
    <rect x="720" y="0" width="1" height="1080" fill="url(#line)"/>
  </g>
</svg>
