<svg xmlns="http://www.w3.org/2000/svg" viewBox="0 0 1600 900" role="img" aria-labelledby="title desc">
  <title id="title">Additional Service Areas</title>
  <desc id="desc">Abstract additional services illustration with connected transportation network nodes.</desc>
  <defs>
    <linearGradient id="bg" x1="0" y1="0" x2="1" y2="1">
      <stop offset="0%" stop-color="#2d2337"/>
      <stop offset="100%" stop-color="#4f7aa8"/>
    </linearGradient>
  </defs>
  <rect width="1600" height="900" fill="url(#bg)"/>
  <rect x="0" y="650" width="1600" height="250" fill="#241d2c"/>
  <g fill="none" stroke="#d6e8ff" stroke-opacity="0.55" stroke-width="6">
    <path d="M180 420 L460 280 L760 410 L1020 250 L1360 360"/>
    <path d="M200 520 L520 430 L820 550 L1100 430 L1380 520"/>
  </g>
  <g fill="#dbeaff">
    <circle cx="180" cy="420" r="22"/>
    <circle cx="460" cy="280" r="22"/>
    <circle cx="760" cy="410" r="22"/>
    <circle cx="1020" cy="250" r="22"/>
    <circle cx="1360" cy="360" r="22"/>
    <circle cx="200" cy="520" r="22"/>
    <circle cx="520" cy="430" r="22"/>
    <circle cx="820" cy="550" r="22"/>
    <circle cx="1100" cy="430" r="22"/>
    <circle cx="1380" cy="520" r="22"/>
  </g>
  <rect x="170" y="150" width="1260" height="120" rx="20" fill="#edf5ff" fill-opacity="0.1" stroke="#d3e8ff" stroke-opacity="0.45"/>
  <text x="220" y="230" fill="#f1f6ff" font-family="Space Grotesk, Segoe UI, Arial, sans-serif" font-size="62" font-weight="700">Additional Service Areas</text>
  <text x="170" y="760" fill="#edf3ff" font-family="Space Grotesk, Segoe UI, Arial, sans-serif" font-size="48" font-weight="600">Pavement Engineering | Materials Design | QA Oversight | Agency Support</text>
</svg>
